<svg width="25" height="19" viewBox="0 0 25 19" fill="none" xmlns="http://www.w3.org/2000/svg">
<path d="M10.9375 19C10.9375 19 9.375 19 9.375 17.4167C9.375 15.8333 10.9375 11.0833 17.1875 11.0833C23.4375 11.0833 25 15.8333 25 17.4167C25 19 23.4375 19 23.4375 19H10.9375ZM17.1875 9.5C18.4307 9.5 19.623 8.99956 20.5021 8.10876C21.3811 7.21796 21.875 6.00978 21.875 4.75C21.875 3.49022 21.3811 2.28204 20.5021 1.39124C19.623 0.500445 18.4307 0 17.1875 0C15.9443 0 14.752 0.500445 13.8729 1.39124C12.9939 2.28204 12.5 3.49022 12.5 4.75C12.5 6.00978 12.9939 7.21796 13.8729 8.10876C14.752 8.99956 15.9443 9.5 17.1875 9.5ZM8.15 19C7.91848 18.5057 7.80296 17.9638 7.8125 17.4167C7.8125 15.2713 8.875 13.0625 10.8375 11.5267C9.8581 11.2202 8.83746 11.0706 7.8125 11.0833C1.5625 11.0833 0 15.8333 0 17.4167C0 19 1.5625 19 1.5625 19H8.15ZM7.03125 9.5C8.06725 9.5 9.06082 9.08296 9.79339 8.34063C10.5259 7.5983 10.9375 6.59148 10.9375 5.54167C10.9375 4.49185 10.5259 3.48503 9.79339 2.7427C9.06082 2.00037 8.06725 1.58333 7.03125 1.58333C5.99525 1.58333 5.00168 2.00037 4.26911 2.7427C3.53655 3.48503 3.125 4.49185 3.125 5.54167C3.125 6.59148 3.53655 7.5983 4.26911 8.34063C5.00168 9.08296 5.99525 9.5 7.03125 9.5Z" fill="#9DFFD9"/>
</svg>
