<svg width="145" height="145" viewBox="0 0 145 145" fill="none" xmlns="http://www.w3.org/2000/svg">
<rect x="4" y="4" width="137" height="137" rx="68.5" fill="#0A2439" stroke="#9DFFD9" stroke-width="8"/>
<path d="M72.5 87.625C76.5114 87.625 80.3585 86.0315 83.195 83.195C86.0315 80.3585 87.625 76.5114 87.625 72.5C87.625 68.4886 86.0315 64.6415 83.195 61.805C80.3585 58.9685 76.5114 57.375 72.5 57.375C68.4886 57.375 64.6415 58.9685 61.805 61.805C58.9685 64.6415 57.375 68.4886 57.375 72.5C57.375 76.5114 58.9685 80.3585 61.805 83.195C64.6415 86.0315 68.4886 87.625 72.5 87.625Z" fill="#9DFFD9"/>
<path fill-rule="evenodd" clip-rule="evenodd" d="M72.5 27.125C73.8371 27.125 75.1195 27.6562 76.065 28.6017C77.0105 29.5472 77.5417 30.8295 77.5417 32.1667V37.5613C85.085 38.6483 92.0738 42.148 97.4629 47.5371C102.852 52.9262 106.352 59.915 107.439 67.4583H112.833C114.17 67.4583 115.453 67.9895 116.398 68.935C117.344 69.8805 117.875 71.1629 117.875 72.5C117.875 73.8371 117.344 75.1195 116.398 76.065C115.453 77.0105 114.17 77.5417 112.833 77.5417H107.439C106.352 85.085 102.852 92.0738 97.4629 97.4629C92.0738 102.852 85.085 106.352 77.5417 107.439V112.833C77.5417 114.17 77.0105 115.453 76.065 116.398C75.1195 117.344 73.8371 117.875 72.5 117.875C71.1629 117.875 69.8805 117.344 68.935 116.398C67.9895 115.453 67.4583 114.17 67.4583 112.833V107.439C59.915 106.352 52.9262 102.852 47.5371 97.4629C42.148 92.0738 38.6483 85.085 37.5613 77.5417H32.1667C30.8295 77.5417 29.5472 77.0105 28.6017 76.065C27.6562 75.1195 27.125 73.8371 27.125 72.5C27.125 71.1629 27.6562 69.8805 28.6017 68.935C29.5472 67.9895 30.8295 67.4583 32.1667 67.4583H37.5613C38.6522 59.9165 42.1532 52.9299 47.5415 47.5415C52.9299 42.1532 59.9165 38.6522 67.4583 37.5613V32.1667C67.4583 30.8295 67.9895 29.5472 68.935 28.6017C69.8805 27.6562 71.1629 27.125 72.5 27.125ZM47.2917 72.5C47.2917 65.8143 49.9475 59.4025 54.675 54.675C59.4025 49.9475 65.8143 47.2917 72.5 47.2917C79.1857 47.2917 85.5975 49.9475 90.325 54.675C95.0525 59.4025 97.7083 65.8143 97.7083 72.5C97.7083 79.1857 95.0525 85.5975 90.325 90.325C85.5975 95.0525 79.1857 97.7083 72.5 97.7083C65.8143 97.7083 59.4025 95.0525 54.675 90.325C49.9475 85.5975 47.2917 79.1857 47.2917 72.5Z" fill="#9DFFD9"/>
</svg>
