<svg width="26" height="26" viewBox="0 0 26 26" fill="none" xmlns="http://www.w3.org/2000/svg">
    <path d="M24.1429 14.8571H14.8571V24.1429C14.8571 24.6354 14.6615 25.1078 14.3132 25.4561C13.9649 25.8043 13.4925 26 13 26C12.5075 26 12.0351 25.8043 11.6868 25.4561C11.3385 25.1078 11.1429 24.6354 11.1429 24.1429V14.8571H1.85714C1.3646 14.8571 0.892227 14.6615 0.543945 14.3132C0.195663 13.9649 0 13.4925 0 13C0 12.5075 0.195663 12.0351 0.543945 11.6868C0.892227 11.3385 1.3646 11.1429 1.85714 11.1429H11.1429V1.85714C11.1429 1.3646 11.3385 0.892226 11.6868 0.543944C12.0351 0.195662 12.5075 0 13 0C13.4925 0 13.9649 0.195662 14.3132 0.543944C14.6615 0.892226 14.8571 1.3646 14.8571 1.85714V11.1429H24.1429C24.6354 11.1429 25.1078 11.3385 25.4561 11.6868C25.8043 12.0351 26 12.5075 26 13C26 13.4925 25.8043 13.9649 25.4561 14.3132C25.1078 14.6615 24.6354 14.8571 24.1429 14.8571Z"
          fill="#c71c38"
          transform="rotate(45 13 13)" />
</svg>