<svg width="20" height="20" viewBox="0 0 20 20" fill="none" xmlns="http://www.w3.org/2000/svg">
<path d="M19.1924 3.43401L12.6264 10L19.1924 16.566C19.5407 16.9143 19.7363 17.3866 19.7363 17.8792C19.7363 18.3717 19.5407 18.8441 19.1924 19.1924C18.8441 19.5407 18.3717 19.7363 17.8792 19.7363C17.3867 19.7363 16.9143 19.5407 16.566 19.1924L10 12.6264L3.43402 19.1924C3.08574 19.5407 2.61337 19.7363 2.12082 19.7363C1.62828 19.7363 1.1559 19.5407 0.807623 19.1924C0.459341 18.8441 0.263679 18.3717 0.263679 17.8792C0.263679 17.3866 0.459341 16.9143 0.807623 16.566L7.37361 10L0.807622 3.43401C0.45934 3.08573 0.263678 2.61335 0.263677 2.12081C0.263677 1.62827 0.45934 1.15589 0.807622 0.807612C1.1559 0.45933 1.62827 0.263668 2.12082 0.263668C2.61336 0.263668 3.08574 0.45933 3.43402 0.807612L10 7.3736L16.566 0.807613C16.9143 0.459331 17.3867 0.263667 17.8792 0.263668C18.3717 0.263668 18.8441 0.459331 19.1924 0.807613C19.5407 1.15589 19.7363 1.62827 19.7363 2.12081C19.7363 2.61335 19.5407 3.08573 19.1924 3.43401Z" fill="#FF9D9D"/>
</svg>
