<svg width="22" height="19" viewBox="0 0 22 19" fill="none" xmlns="http://www.w3.org/2000/svg">
<path d="M0 2.03571C0 0.91183 0.923828 0 2.0625 0H6.1875C7.32617 0 8.25 0.91183 8.25 2.03571V2.71429H13.75V2.03571C13.75 0.91183 14.6738 0 15.8125 0H19.9375C21.0762 0 22 0.91183 22 2.03571V6.10714C22 7.23103 21.0762 8.14286 19.9375 8.14286H15.8125C14.6738 8.14286 13.75 7.23103 13.75 6.10714V5.42857H8.25V6.10714C8.25 6.41674 8.17695 6.71362 8.05234 6.97656L11 10.8571H14.4375C15.5762 10.8571 16.5 11.769 16.5 12.8929V16.9643C16.5 18.0882 15.5762 19 14.4375 19H10.3125C9.17383 19 8.25 18.0882 8.25 16.9643V12.8929C8.25 12.5833 8.32305 12.2864 8.44766 12.0234L5.5 8.14286H2.0625C0.923828 8.14286 0 7.23103 0 6.10714V2.03571Z" fill="#9DFFD9"/>
</svg>
